<svg width="1440" height="810" viewBox="0 0 1440 810" fill="none" xmlns="http://www.w3.org/2000/svg">
<g clip-path="url(#clip0_223_25704)">
<rect width="1440" height="810" fill="#030303"/>
<line y1="404.5" x2="1440" y2="404.5" stroke="url(#paint0_linear_223_25704)"/>
<circle cx="720.5" cy="405.5" r="887" transform="rotate(120 720.5 405.5)" fill="#030303" stroke="url(#paint1_linear_223_25704)" stroke-width="3"/>
<mask id="mask0_223_25704" style="mask-type:alpha" maskUnits="userSpaceOnUse" x="-166" y="-481" width="1773" height="1773">
<circle cx="720.5" cy="405.5" r="885" transform="rotate(120 720.5 405.5)" fill="#030303" stroke="url(#paint2_linear_223_25704)"/>
</mask>
<g mask="url(#mask0_223_25704)">
<line y1="-0.5" x2="1619.36" y2="-0.5" transform="matrix(0.870553 -0.492075 0.50262 0.864508 -707.273 175.37)" stroke="url(#paint3_linear_223_25704)"/>
<line y1="-0.5" x2="1626.08" y2="-0.5" transform="matrix(-0.873962 0.485995 -0.496663 -0.867943 2120.38 646.664)" stroke="url(#paint4_linear_223_25704)"/>
</g>
<path d="M429.192 428.28C429 428.28 428.784 428.208 428.544 428.064C428.304 427.92 428.136 427.608 428.04 427.128L417.168 382.992C417.12 382.656 416.976 382.512 416.736 382.56C416.496 382.56 416.376 382.728 416.376 383.064L414.936 422.808C414.888 424.152 415.104 425.184 415.584 425.904C416.064 426.576 416.904 427.008 418.104 427.2L419.04 427.344C419.664 427.392 419.976 427.68 419.976 428.208C419.976 428.736 419.616 429 418.896 429H408.6C407.88 429 407.52 428.736 407.52 428.208C407.52 427.68 407.832 427.392 408.456 427.344L409.392 427.2C410.64 427.008 411.48 426.576 411.912 425.904C412.392 425.184 412.656 424.152 412.704 422.808L414.144 381.912C414.192 380.904 414.048 380.232 413.712 379.896C413.376 379.56 412.656 379.296 411.552 379.104L409.896 378.816C409.272 378.672 408.96 378.384 408.96 377.952C408.96 377.424 409.32 377.16 410.04 377.16H418.68C420.168 377.16 421.08 377.88 421.416 379.32L430.128 415.248C430.224 415.584 430.368 415.752 430.56 415.752C430.8 415.752 430.944 415.584 430.992 415.248L440.064 378.96C440.352 377.76 441.12 377.16 442.368 377.16H450.864C451.584 377.16 451.944 377.424 451.944 377.952C451.944 378.384 451.632 378.672 451.008 378.816L449.352 379.104C448.344 379.296 447.672 379.56 447.336 379.896C447 380.232 446.856 380.904 446.904 381.912L448.344 424.248C448.392 425.256 448.56 425.928 448.848 426.264C449.136 426.6 449.784 426.864 450.792 427.056L452.448 427.344C453.072 427.488 453.384 427.776 453.384 428.208C453.384 428.736 453.024 429 452.304 429H439.272C438.552 429 438.192 428.736 438.192 428.208C438.192 427.776 438.504 427.488 439.128 427.344L440.784 427.056C441.792 426.864 442.464 426.6 442.8 426.264C443.136 425.928 443.28 425.256 443.232 424.248L442.008 383.064C442.008 382.728 441.888 382.56 441.648 382.56C441.456 382.512 441.312 382.632 441.216 382.92L430.272 427.128C430.176 427.608 430.008 427.92 429.768 428.064C429.576 428.208 429.384 428.28 429.192 428.28ZM468.307 429.648C465.859 429.648 463.651 428.832 461.683 427.2C459.763 425.52 458.227 423.24 457.075 420.36C455.923 417.48 455.347 414.264 455.347 410.712C455.347 407.16 455.923 403.968 457.075 401.136C458.227 398.304 459.787 396.048 461.755 394.368C463.723 392.688 465.907 391.848 468.307 391.848C470.755 391.848 472.939 392.688 474.859 394.368C476.827 396.048 478.387 398.304 479.539 401.136C480.691 403.968 481.267 407.16 481.267 410.712C481.267 414.264 480.691 417.48 479.539 420.36C478.435 423.24 476.899 425.52 474.931 427.2C472.963 428.832 470.755 429.648 468.307 429.648ZM468.307 427.848C473.299 427.848 475.795 422.136 475.795 410.712C475.795 399.336 473.299 393.648 468.307 393.648C463.315 393.648 460.819 399.336 460.819 410.712C460.819 422.136 463.315 427.848 468.307 427.848ZM485.242 429C484.522 429 484.162 428.736 484.162 428.208C484.162 427.776 484.474 427.488 485.098 427.344L485.962 427.2C486.97 427.008 487.618 426.72 487.906 426.336C488.242 425.904 488.41 425.184 488.41 424.176V399.984C488.41 399.12 488.266 398.544 487.978 398.256C487.738 397.92 487.282 397.704 486.61 397.608L485.098 397.392C484.474 397.344 484.162 397.08 484.162 396.6C484.162 396.216 484.546 395.952 485.314 395.808C486.802 395.568 487.93 395.184 488.698 394.656C489.514 394.128 490.354 393.48 491.218 392.712C491.65 392.28 492.01 392.064 492.298 392.064C492.73 392.064 492.946 392.352 492.946 392.928V396.168C492.946 396.504 493.09 396.768 493.378 396.96C493.666 397.104 493.978 397.008 494.314 396.672C496.282 394.8 497.986 393.528 499.426 392.856C500.914 392.184 502.402 391.848 503.89 391.848C505.282 391.848 506.506 392.232 507.562 393C508.666 393.72 509.482 394.824 510.01 396.312C510.154 396.696 510.394 396.936 510.73 397.032C511.114 397.08 511.474 396.936 511.81 396.6C513.778 394.776 515.482 393.528 516.922 392.856C518.362 392.184 519.826 391.848 521.314 391.848C523.33 391.848 524.962 392.616 526.21 394.152C527.506 395.64 528.154 397.848 528.154 400.776V424.176C528.154 425.184 528.298 425.904 528.586 426.336C528.922 426.72 529.594 426.984 530.602 427.128L532.186 427.344C532.714 427.44 532.978 427.728 532.978 428.208C532.978 428.736 532.69 429 532.114 429H519.802C519.13 429 518.794 428.736 518.794 428.208C518.794 427.728 519.058 427.44 519.586 427.344L520.594 427.2C521.698 427.056 522.418 426.768 522.754 426.336C523.09 425.904 523.258 425.184 523.258 424.176V401.568C523.258 399.216 522.826 397.56 521.962 396.6C521.146 395.64 520.018 395.16 518.578 395.16C517.138 395.16 515.818 395.616 514.618 396.528C513.466 397.392 512.53 398.568 511.81 400.056C511.09 401.496 510.73 403.104 510.73 404.88V424.176C510.73 425.184 510.898 425.904 511.234 426.336C511.57 426.72 512.266 426.984 513.322 427.128L514.906 427.344C515.434 427.44 515.698 427.728 515.698 428.208C515.698 428.736 515.41 429 514.834 429H502.594C501.922 429 501.586 428.736 501.586 428.208C501.586 427.728 501.85 427.44 502.378 427.344L503.386 427.2C504.394 427.056 505.042 426.768 505.33 426.336C505.666 425.904 505.834 425.184 505.834 424.176V401.568C505.834 399.216 505.402 397.56 504.538 396.6C503.722 395.64 502.594 395.16 501.154 395.16C499.714 395.16 498.394 395.616 497.194 396.528C496.042 397.392 495.106 398.568 494.386 400.056C493.666 401.496 493.306 403.104 493.306 404.88V424.176C493.306 425.184 493.45 425.904 493.738 426.336C494.074 426.768 494.746 427.032 495.754 427.128L497.698 427.344C498.226 427.44 498.49 427.704 498.49 428.136C498.49 428.712 498.13 429 497.41 429H485.242ZM547.601 429.648C545.297 429.648 543.233 428.88 541.409 427.344C539.585 425.808 538.121 423.648 537.017 420.864C535.961 418.032 535.433 414.768 535.433 411.072C535.433 407.28 535.985 403.944 537.089 401.064C538.193 398.184 539.705 395.928 541.625 394.296C543.545 392.664 545.681 391.848 548.033 391.848C550.865 391.848 553.145 393.024 554.873 395.376C556.649 397.68 557.537 401.448 557.537 406.68C557.537 408.264 556.937 409.056 555.737 409.056H542.057C541.097 409.056 540.617 409.608 540.617 410.712C540.617 415.8 541.361 419.616 542.849 422.16C544.337 424.704 546.233 425.976 548.537 425.976C550.361 425.976 551.849 425.328 553.001 424.032C554.153 422.736 555.089 420.552 555.809 417.48C555.953 416.952 556.265 416.688 556.745 416.688C557.321 416.688 557.537 417.168 557.393 418.128C556.625 422.4 555.401 425.4 553.721 427.128C552.041 428.808 550.001 429.648 547.601 429.648ZM541.841 407.256H549.113C551.417 407.256 552.569 406.056 552.569 403.656C552.569 400.536 552.185 398.088 551.417 396.312C550.649 394.536 549.497 393.648 547.961 393.648C546.089 393.648 544.505 394.728 543.209 396.888C541.961 399.048 541.145 402.12 540.761 406.104C540.665 406.872 541.025 407.256 541.841 407.256ZM561.531 429C560.811 429 560.451 428.736 560.451 428.208C560.451 427.776 560.763 427.488 561.387 427.344L562.251 427.2C563.259 427.008 563.907 426.72 564.195 426.336C564.531 425.904 564.699 425.184 564.699 424.176V399.984C564.699 399.12 564.555 398.544 564.267 398.256C564.027 397.92 563.571 397.704 562.899 397.608L561.387 397.392C560.763 397.344 560.451 397.08 560.451 396.6C560.451 396.216 560.835 395.952 561.603 395.808C563.091 395.568 564.219 395.184 564.987 394.656C565.803 394.128 566.643 393.48 567.507 392.712C567.939 392.28 568.299 392.064 568.587 392.064C569.019 392.064 569.235 392.352 569.235 392.928V396.168C569.235 396.6 569.379 396.888 569.667 397.032C570.003 397.128 570.363 396.984 570.747 396.6C572.667 394.776 574.347 393.528 575.787 392.856C577.275 392.184 578.835 391.848 580.467 391.848C582.627 391.848 584.355 392.616 585.651 394.152C586.947 395.64 587.595 397.848 587.595 400.776V424.176C587.595 425.184 587.739 425.904 588.027 426.336C588.363 426.72 589.035 426.984 590.043 427.128L591.627 427.344C592.155 427.44 592.419 427.728 592.419 428.208C592.419 428.736 592.131 429 591.555 429H579.459C578.787 429 578.451 428.736 578.451 428.208C578.451 427.728 578.715 427.44 579.243 427.344L580.251 427.2C581.259 427.056 581.907 426.768 582.195 426.336C582.531 425.904 582.699 425.184 582.699 424.176V401.568C582.699 399.216 582.267 397.56 581.403 396.6C580.539 395.64 579.315 395.16 577.731 395.16C576.195 395.16 574.803 395.616 573.555 396.528C572.355 397.392 571.395 398.568 570.675 400.056C569.955 401.496 569.595 403.104 569.595 404.88V424.176C569.595 425.184 569.739 425.904 570.027 426.336C570.363 426.768 571.035 427.032 572.043 427.128L573.987 427.344C574.515 427.44 574.779 427.704 574.779 428.136C574.779 428.712 574.419 429 573.699 429H561.531ZM603.775 429.648C602.095 429.648 600.703 429.072 599.599 427.92C598.543 426.72 598.015 424.776 598.015 422.088V395.16C598.015 394.584 597.727 394.296 597.151 394.296H595.063C594.295 394.296 593.911 394.008 593.911 393.432C593.911 393.048 594.127 392.712 594.559 392.424C596.143 391.32 597.415 390.144 598.375 388.896C599.335 387.6 600.175 385.848 600.895 383.64C601.231 382.632 601.639 382.128 602.119 382.128C602.647 382.128 602.911 382.512 602.911 383.28V391.272C602.911 391.944 603.247 392.28 603.919 392.28H608.599C609.367 392.28 609.751 392.616 609.751 393.288C609.751 393.96 609.367 394.296 608.599 394.296H603.919C603.247 394.296 602.911 394.632 602.911 395.304V422.16C602.911 423.216 603.079 424.056 603.415 424.68C603.751 425.256 604.375 425.544 605.287 425.544C606.295 425.544 607.111 425.04 607.735 424.032C608.407 423.024 608.839 421.392 609.031 419.136C609.127 418.464 609.439 418.128 609.967 418.128C610.543 418.128 610.831 418.488 610.831 419.208C610.687 422.904 609.919 425.568 608.527 427.2C607.183 428.832 605.599 429.648 603.775 429.648ZM621.256 429.648C620.152 429.648 618.976 429.504 617.728 429.216C616.48 428.976 615.472 428.664 614.704 428.28C614.272 428.04 614.056 427.632 614.056 427.056L613.84 418.992C613.84 418.176 614.152 417.768 614.776 417.768C615.304 417.768 615.664 418.152 615.856 418.92C616.672 422.328 617.656 424.656 618.808 425.904C620.008 427.152 621.448 427.776 623.128 427.776C624.52 427.776 625.672 427.248 626.584 426.192C627.496 425.088 627.952 423.576 627.952 421.656C627.952 419.736 627.424 418.032 626.368 416.544C625.312 415.056 623.536 413.424 621.04 411.648C618.544 409.968 616.72 408.288 615.568 406.608C614.416 404.88 613.84 403.008 613.84 400.992C613.84 398.256 614.8 396.048 616.72 394.368C618.64 392.688 621.184 391.848 624.352 391.848C625.312 391.848 626.248 391.968 627.16 392.208C628.072 392.4 628.888 392.736 629.608 393.216C630.04 393.504 630.256 393.888 630.256 394.368L630.4 402.288C630.4 403.008 630.112 403.368 629.536 403.368C629.2 403.368 628.96 403.272 628.816 403.08C628.672 402.84 628.552 402.552 628.456 402.216C627.496 399.096 626.536 396.936 625.576 395.736C624.616 394.488 623.44 393.864 622.048 393.864C620.8 393.864 619.768 394.296 618.952 395.16C618.136 396.024 617.728 397.104 617.728 398.4C617.728 400.08 618.232 401.544 619.24 402.792C620.248 404.04 622.072 405.576 624.712 407.4C627.112 409.128 628.912 411 630.112 413.016C631.36 414.984 631.984 417.144 631.984 419.496C631.984 422.568 631 425.04 629.032 426.912C627.064 428.736 624.472 429.648 621.256 429.648ZM677.311 429.72C677.119 429.72 676.927 429.648 676.735 429.504C676.543 429.36 676.399 429.048 676.303 428.568L670.759 406.248C670.711 405.864 670.567 405.696 670.327 405.744C670.087 405.744 669.919 405.912 669.823 406.248L663.631 428.568C663.487 429.048 663.319 429.36 663.127 429.504C662.983 429.648 662.815 429.72 662.623 429.72C662.431 429.72 662.215 429.648 661.975 429.504C661.783 429.36 661.639 429.048 661.543 428.568L650.167 382.92C649.831 381.576 649.447 380.64 649.015 380.112C648.631 379.584 647.959 379.224 646.999 379.032L645.919 378.816C645.247 378.672 644.911 378.36 644.911 377.88C644.911 377.4 645.271 377.16 645.991 377.16H657.583C658.255 377.16 658.591 377.424 658.591 377.952C658.591 378.384 658.231 378.672 657.511 378.816L656.719 378.96C655.903 379.104 655.375 379.392 655.135 379.824C654.943 380.208 654.967 380.928 655.207 381.984L663.703 417.12C663.799 417.456 663.943 417.624 664.135 417.624C664.375 417.624 664.543 417.456 664.639 417.12L667.879 405.384C668.407 403.56 668.671 401.88 668.671 400.344C668.671 398.808 668.431 397.104 667.951 395.232L664.927 382.92C664.591 381.576 664.255 380.616 663.919 380.04C663.631 379.464 663.223 379.128 662.695 379.032L661.615 378.816C660.943 378.672 660.607 378.36 660.607 377.88C660.607 377.4 660.967 377.16 661.687 377.16H671.551C672.223 377.16 672.559 377.424 672.559 377.952C672.559 378.384 672.199 378.672 671.479 378.816L670.687 378.96C670.063 379.056 669.679 379.32 669.535 379.752C669.439 380.184 669.511 380.928 669.751 381.984L672.199 392.28C672.295 392.616 672.439 392.784 672.631 392.784C672.871 392.784 673.039 392.616 673.135 392.28L675.727 383.496C676.255 381.672 676.447 380.472 676.303 379.896C676.207 379.32 675.943 379.008 675.511 378.96L674.719 378.816C673.999 378.672 673.639 378.384 673.639 377.952C673.639 377.424 673.975 377.16 674.647 377.16H681.487C682.303 377.16 682.711 377.424 682.711 377.952C682.711 378.432 682.303 378.72 681.487 378.816L680.695 378.888C680.071 378.936 679.543 379.32 679.111 380.04C678.727 380.76 678.295 381.936 677.815 383.568L675.079 393C674.551 394.776 674.263 396.456 674.215 398.04C674.215 399.576 674.431 401.28 674.863 403.152L678.103 416.688C678.199 417.024 678.343 417.192 678.535 417.192C678.775 417.192 678.919 417.024 678.967 416.688L687.247 383.496C687.919 380.712 687.487 379.2 685.951 378.96L685.159 378.816C684.439 378.672 684.079 378.36 684.079 377.88C684.079 377.4 684.415 377.16 685.087 377.16H693.151C693.967 377.16 694.375 377.424 694.375 377.952C694.375 378.432 693.967 378.72 693.151 378.816L692.359 378.888C691.735 378.936 691.183 379.32 690.703 380.04C690.271 380.712 689.863 381.888 689.479 383.568L678.319 428.568C678.223 429.048 678.079 429.36 677.887 429.504C677.695 429.648 677.503 429.72 677.311 429.72ZM702.5 429.648C700.196 429.648 698.132 428.88 696.308 427.344C694.484 425.808 693.02 423.648 691.916 420.864C690.86 418.032 690.332 414.768 690.332 411.072C690.332 407.28 690.884 403.944 691.988 401.064C693.092 398.184 694.604 395.928 696.524 394.296C698.444 392.664 700.58 391.848 702.932 391.848C705.764 391.848 708.044 393.024 709.772 395.376C711.548 397.68 712.436 401.448 712.436 406.68C712.436 408.264 711.836 409.056 710.636 409.056H696.956C695.996 409.056 695.516 409.608 695.516 410.712C695.516 415.8 696.26 419.616 697.748 422.16C699.236 424.704 701.132 425.976 703.436 425.976C705.26 425.976 706.748 425.328 707.9 424.032C709.052 422.736 709.988 420.552 710.708 417.48C710.852 416.952 711.164 416.688 711.644 416.688C712.22 416.688 712.436 417.168 712.292 418.128C711.524 422.4 710.3 425.4 708.62 427.128C706.94 428.808 704.9 429.648 702.5 429.648ZM696.74 407.256H704.012C706.316 407.256 707.468 406.056 707.468 403.656C707.468 400.536 707.084 398.088 706.316 396.312C705.548 394.536 704.396 393.648 702.86 393.648C700.988 393.648 699.404 394.728 698.108 396.888C696.86 399.048 696.044 402.12 695.66 406.104C695.564 406.872 695.924 407.256 696.74 407.256ZM719.739 393.792C719.163 393.792 718.875 393.384 718.875 392.568C718.827 390.36 718.611 388.488 718.227 386.952C717.843 385.416 717.459 384.096 717.075 382.992C716.739 381.888 716.571 380.88 716.571 379.968C716.571 378.96 716.835 378.12 717.363 377.448C717.891 376.728 718.683 376.368 719.739 376.368C720.843 376.368 721.659 376.728 722.187 377.448C722.715 378.12 722.979 378.96 722.979 379.968C722.979 380.88 722.787 381.888 722.403 382.992C722.067 384.096 721.707 385.416 721.323 386.952C720.939 388.488 720.699 390.36 720.603 392.568C720.603 393.384 720.315 393.792 719.739 393.792ZM743.566 429.648C743.134 429.648 742.822 429.384 742.63 428.856L733.054 397.104C732.718 395.952 732.382 395.208 732.046 394.872C731.758 394.536 731.278 394.296 730.606 394.152L729.526 393.936C728.902 393.792 728.59 393.48 728.59 393C728.59 392.52 728.926 392.28 729.598 392.28H741.478C742.15 392.28 742.486 392.52 742.486 393C742.486 393.528 742.174 393.84 741.55 393.936L740.398 394.08C739.246 394.224 738.526 394.512 738.238 394.944C737.95 395.328 737.95 396.048 738.238 397.104L744.214 417.912C744.358 418.44 744.598 418.704 744.934 418.704C745.27 418.704 745.51 418.44 745.654 417.912L751.486 398.4C751.87 397.104 751.966 396.144 751.774 395.52C751.63 394.848 750.958 394.416 749.758 394.224L748.246 393.936C747.622 393.792 747.31 393.48 747.31 393C747.31 392.52 747.646 392.28 748.318 392.28H757.462C758.134 392.28 758.47 392.544 758.47 393.072C758.47 393.552 758.182 393.888 757.606 394.08L756.958 394.296C756.238 394.536 755.614 394.968 755.086 395.592C754.606 396.216 754.126 397.296 753.646 398.832L744.502 428.856C744.31 429.384 743.998 429.648 743.566 429.648ZM770.844 429.648C768.54 429.648 766.476 428.88 764.652 427.344C762.828 425.808 761.364 423.648 760.26 420.864C759.204 418.032 758.676 414.768 758.676 411.072C758.676 407.28 759.228 403.944 760.332 401.064C761.436 398.184 762.948 395.928 764.868 394.296C766.788 392.664 768.924 391.848 771.276 391.848C774.108 391.848 776.388 393.024 778.116 395.376C779.892 397.68 780.78 401.448 780.78 406.68C780.78 408.264 780.18 409.056 778.98 409.056H765.3C764.34 409.056 763.86 409.608 763.86 410.712C763.86 415.8 764.604 419.616 766.092 422.16C767.58 424.704 769.476 425.976 771.78 425.976C773.604 425.976 775.092 425.328 776.244 424.032C777.396 422.736 778.332 420.552 779.052 417.48C779.196 416.952 779.508 416.688 779.988 416.688C780.564 416.688 780.78 417.168 780.636 418.128C779.868 422.4 778.644 425.4 776.964 427.128C775.284 428.808 773.244 429.648 770.844 429.648ZM765.084 407.256H772.356C774.66 407.256 775.812 406.056 775.812 403.656C775.812 400.536 775.428 398.088 774.66 396.312C773.892 394.536 772.74 393.648 771.204 393.648C769.332 393.648 767.748 394.728 766.452 396.888C765.204 399.048 764.388 402.12 764.004 406.104C763.908 406.872 764.268 407.256 765.084 407.256ZM797.296 429C796.576 429 796.216 428.736 796.216 428.208C796.216 427.776 796.528 427.488 797.152 427.344L798.808 427.056C799.816 426.864 800.464 426.6 800.752 426.264C801.088 425.928 801.256 425.256 801.256 424.248V381.912C801.256 380.904 801.088 380.232 800.752 379.896C800.464 379.56 799.816 379.296 798.808 379.104L797.152 378.816C796.528 378.672 796.216 378.384 796.216 377.952C796.216 377.424 796.576 377.16 797.296 377.16H812.344C815.176 377.16 817.672 377.784 819.832 379.032C821.992 380.232 823.672 381.912 824.872 384.072C826.072 386.232 826.672 388.728 826.672 391.56C826.672 394.296 826.072 396.72 824.872 398.832C823.672 400.944 822.016 402.6 819.904 403.8C817.792 404.952 815.344 405.528 812.56 405.528H807.376C806.704 405.528 806.368 405.864 806.368 406.536V423.96C806.368 424.968 806.56 425.664 806.944 426.048C807.328 426.384 808.192 426.672 809.536 426.912L812.2 427.344C812.728 427.44 812.992 427.704 812.992 428.136C812.992 428.712 812.632 429 811.912 429H797.296ZM806.368 399.768C806.368 402.408 807.976 403.728 811.192 403.728C814.312 403.728 816.76 402.624 818.536 400.416C820.36 398.208 821.272 395.184 821.272 391.344C821.272 387.408 820.36 384.36 818.536 382.2C816.712 380.04 814.12 378.96 810.76 378.96C807.832 378.96 806.368 379.92 806.368 381.84V399.768ZM839.475 396.888C841.443 393.528 843.819 391.848 846.603 391.848C848.187 391.848 849.363 392.328 850.131 393.288C850.899 394.2 851.283 395.232 851.283 396.384C851.283 397.296 851.043 398.04 850.563 398.616C850.131 399.192 849.435 399.48 848.475 399.48C847.707 399.48 847.131 399.312 846.747 398.976C846.411 398.592 846.123 398.16 845.883 397.68C845.691 397.2 845.451 396.792 845.163 396.456C844.875 396.072 844.395 395.88 843.723 395.88C842.859 395.88 842.043 396.408 841.275 397.464C840.507 398.472 839.859 399.84 839.331 401.568C838.851 403.296 838.611 405.264 838.611 407.472V424.176C838.611 425.184 838.755 425.904 839.043 426.336C839.379 426.768 840.051 427.032 841.059 427.128L843.003 427.344C843.531 427.44 843.795 427.704 843.795 428.136C843.795 428.712 843.435 429 842.715 429H830.547C829.827 429 829.467 428.736 829.467 428.208C829.467 427.776 829.779 427.488 830.403 427.344L831.267 427.2C832.275 427.008 832.923 426.72 833.211 426.336C833.547 425.904 833.715 425.184 833.715 424.176V399.984C833.715 399.12 833.571 398.544 833.283 398.256C833.043 397.92 832.587 397.704 831.915 397.608L830.403 397.392C829.779 397.344 829.467 397.08 829.467 396.6C829.467 396.216 829.851 395.952 830.619 395.808C832.107 395.568 833.235 395.184 834.003 394.656C834.819 394.128 835.659 393.48 836.523 392.712C836.955 392.28 837.315 392.064 837.603 392.064C838.035 392.064 838.251 392.352 838.251 392.928V396.816C838.251 397.152 838.395 397.368 838.683 397.464C838.971 397.512 839.235 397.32 839.475 396.888ZM865.133 429.648C862.829 429.648 860.765 428.88 858.941 427.344C857.117 425.808 855.653 423.648 854.549 420.864C853.493 418.032 852.965 414.768 852.965 411.072C852.965 407.28 853.517 403.944 854.621 401.064C855.725 398.184 857.237 395.928 859.157 394.296C861.077 392.664 863.213 391.848 865.565 391.848C868.397 391.848 870.677 393.024 872.405 395.376C874.181 397.68 875.069 401.448 875.069 406.68C875.069 408.264 874.469 409.056 873.269 409.056H859.589C858.629 409.056 858.149 409.608 858.149 410.712C858.149 415.8 858.893 419.616 860.381 422.16C861.869 424.704 863.765 425.976 866.069 425.976C867.893 425.976 869.381 425.328 870.533 424.032C871.685 422.736 872.621 420.552 873.341 417.48C873.485 416.952 873.797 416.688 874.277 416.688C874.853 416.688 875.069 417.168 874.925 418.128C874.157 422.4 872.933 425.4 871.253 427.128C869.573 428.808 867.533 429.648 865.133 429.648ZM859.373 407.256H866.645C868.949 407.256 870.101 406.056 870.101 403.656C870.101 400.536 869.717 398.088 868.949 396.312C868.181 394.536 867.029 393.648 865.493 393.648C863.621 393.648 862.037 394.728 860.741 396.888C859.493 399.048 858.677 402.12 858.293 406.104C858.197 406.872 858.557 407.256 859.373 407.256ZM886.334 429.648C885.23 429.648 884.054 429.504 882.806 429.216C881.558 428.976 880.55 428.664 879.782 428.28C879.35 428.04 879.134 427.632 879.134 427.056L878.918 418.992C878.918 418.176 879.23 417.768 879.854 417.768C880.382 417.768 880.742 418.152 880.934 418.92C881.75 422.328 882.734 424.656 883.886 425.904C885.086 427.152 886.526 427.776 888.206 427.776C889.598 427.776 890.75 427.248 891.662 426.192C892.574 425.088 893.03 423.576 893.03 421.656C893.03 419.736 892.502 418.032 891.446 416.544C890.39 415.056 888.614 413.424 886.118 411.648C883.622 409.968 881.798 408.288 880.646 406.608C879.494 404.88 878.918 403.008 878.918 400.992C878.918 398.256 879.878 396.048 881.798 394.368C883.718 392.688 886.262 391.848 889.43 391.848C890.39 391.848 891.326 391.968 892.238 392.208C893.15 392.4 893.966 392.736 894.686 393.216C895.118 393.504 895.334 393.888 895.334 394.368L895.478 402.288C895.478 403.008 895.19 403.368 894.614 403.368C894.278 403.368 894.038 403.272 893.894 403.08C893.75 402.84 893.63 402.552 893.534 402.216C892.574 399.096 891.614 396.936 890.654 395.736C889.694 394.488 888.518 393.864 887.126 393.864C885.878 393.864 884.846 394.296 884.03 395.16C883.214 396.024 882.806 397.104 882.806 398.4C882.806 400.08 883.31 401.544 884.318 402.792C885.326 404.04 887.15 405.576 889.79 407.4C892.19 409.128 893.99 411 895.19 413.016C896.438 414.984 897.062 417.144 897.062 419.496C897.062 422.568 896.078 425.04 894.11 426.912C892.142 428.736 889.55 429.648 886.334 429.648ZM912.875 429.648C910.571 429.648 908.507 428.88 906.683 427.344C904.859 425.808 903.395 423.648 902.291 420.864C901.235 418.032 900.707 414.768 900.707 411.072C900.707 407.28 901.259 403.944 902.363 401.064C903.467 398.184 904.979 395.928 906.899 394.296C908.819 392.664 910.955 391.848 913.307 391.848C916.139 391.848 918.419 393.024 920.147 395.376C921.923 397.68 922.811 401.448 922.811 406.68C922.811 408.264 922.211 409.056 921.011 409.056H907.331C906.371 409.056 905.891 409.608 905.891 410.712C905.891 415.8 906.635 419.616 908.123 422.16C909.611 424.704 911.507 425.976 913.811 425.976C915.635 425.976 917.123 425.328 918.275 424.032C919.427 422.736 920.363 420.552 921.083 417.48C921.227 416.952 921.539 416.688 922.019 416.688C922.595 416.688 922.811 417.168 922.667 418.128C921.899 422.4 920.675 425.4 918.995 427.128C917.315 428.808 915.275 429.648 912.875 429.648ZM907.115 407.256H914.387C916.691 407.256 917.843 406.056 917.843 403.656C917.843 400.536 917.459 398.088 916.691 396.312C915.923 394.536 914.771 393.648 913.235 393.648C911.363 393.648 909.779 394.728 908.483 396.888C907.235 399.048 906.419 402.12 906.035 406.104C905.939 406.872 906.299 407.256 907.115 407.256ZM935.733 396.888C937.701 393.528 940.077 391.848 942.861 391.848C944.445 391.848 945.621 392.328 946.389 393.288C947.157 394.2 947.541 395.232 947.541 396.384C947.541 397.296 947.301 398.04 946.821 398.616C946.389 399.192 945.693 399.48 944.733 399.48C943.965 399.48 943.389 399.312 943.005 398.976C942.669 398.592 942.381 398.16 942.141 397.68C941.949 397.2 941.709 396.792 941.421 396.456C941.133 396.072 940.653 395.88 939.981 395.88C939.117 395.88 938.301 396.408 937.533 397.464C936.765 398.472 936.117 399.84 935.589 401.568C935.109 403.296 934.869 405.264 934.869 407.472V424.176C934.869 425.184 935.013 425.904 935.301 426.336C935.637 426.768 936.309 427.032 937.317 427.128L939.261 427.344C939.789 427.44 940.053 427.704 940.053 428.136C940.053 428.712 939.693 429 938.973 429H926.805C926.085 429 925.725 428.736 925.725 428.208C925.725 427.776 926.037 427.488 926.661 427.344L927.525 427.2C928.533 427.008 929.181 426.72 929.469 426.336C929.805 425.904 929.973 425.184 929.973 424.176V399.984C929.973 399.12 929.829 398.544 929.541 398.256C929.301 397.92 928.845 397.704 928.173 397.608L926.661 397.392C926.037 397.344 925.725 397.08 925.725 396.6C925.725 396.216 926.109 395.952 926.877 395.808C928.365 395.568 929.493 395.184 930.261 394.656C931.077 394.128 931.917 393.48 932.781 392.712C933.213 392.28 933.573 392.064 933.861 392.064C934.293 392.064 934.509 392.352 934.509 392.928V396.816C934.509 397.152 934.653 397.368 934.941 397.464C935.229 397.512 935.493 397.32 935.733 396.888ZM961.534 429.648C961.102 429.648 960.79 429.384 960.598 428.856L951.022 397.104C950.686 395.952 950.35 395.208 950.014 394.872C949.726 394.536 949.246 394.296 948.574 394.152L947.494 393.936C946.87 393.792 946.558 393.48 946.558 393C946.558 392.52 946.894 392.28 947.566 392.28H959.446C960.118 392.28 960.454 392.52 960.454 393C960.454 393.528 960.142 393.84 959.518 393.936L958.366 394.08C957.214 394.224 956.494 394.512 956.206 394.944C955.918 395.328 955.918 396.048 956.206 397.104L962.182 417.912C962.326 418.44 962.566 418.704 962.902 418.704C963.238 418.704 963.478 418.44 963.622 417.912L969.454 398.4C969.838 397.104 969.934 396.144 969.742 395.52C969.598 394.848 968.926 394.416 967.726 394.224L966.214 393.936C965.59 393.792 965.278 393.48 965.278 393C965.278 392.52 965.614 392.28 966.286 392.28H975.43C976.102 392.28 976.438 392.544 976.438 393.072C976.438 393.552 976.15 393.888 975.574 394.08L974.926 394.296C974.206 394.536 973.582 394.968 973.054 395.592C972.574 396.216 972.094 397.296 971.614 398.832L962.47 428.856C962.278 429.384 961.966 429.648 961.534 429.648ZM988.812 429.648C986.508 429.648 984.444 428.88 982.62 427.344C980.796 425.808 979.332 423.648 978.228 420.864C977.172 418.032 976.644 414.768 976.644 411.072C976.644 407.28 977.196 403.944 978.3 401.064C979.404 398.184 980.916 395.928 982.836 394.296C984.756 392.664 986.892 391.848 989.244 391.848C992.076 391.848 994.356 393.024 996.084 395.376C997.86 397.68 998.748 401.448 998.748 406.68C998.748 408.264 998.148 409.056 996.948 409.056H983.268C982.308 409.056 981.828 409.608 981.828 410.712C981.828 415.8 982.572 419.616 984.06 422.16C985.548 424.704 987.444 425.976 989.748 425.976C991.572 425.976 993.06 425.328 994.212 424.032C995.364 422.736 996.3 420.552 997.02 417.48C997.164 416.952 997.476 416.688 997.956 416.688C998.532 416.688 998.748 417.168 998.604 418.128C997.836 422.4 996.612 425.4 994.932 427.128C993.252 428.808 991.212 429.648 988.812 429.648ZM983.052 407.256H990.324C992.628 407.256 993.78 406.056 993.78 403.656C993.78 400.536 993.396 398.088 992.628 396.312C991.86 394.536 990.708 393.648 989.172 393.648C987.3 393.648 985.716 394.728 984.42 396.888C983.172 399.048 982.356 402.12 981.972 406.104C981.876 406.872 982.236 407.256 983.052 407.256ZM1013.61 429.648C1011.5 429.648 1009.61 428.928 1007.93 427.488C1006.29 426 1005.02 423.96 1004.11 421.368C1003.2 418.728 1002.74 415.68 1002.74 412.224C1002.74 408.192 1003.37 404.664 1004.61 401.64C1005.86 398.568 1007.59 396.168 1009.8 394.44C1012.01 392.712 1014.5 391.848 1017.29 391.848C1017.96 391.848 1018.63 391.92 1019.3 392.064C1019.97 392.16 1020.62 392.352 1021.25 392.64C1022.01 393.024 1022.4 392.856 1022.4 392.136V382.92C1022.4 382.056 1022.25 381.456 1021.97 381.12C1021.73 380.784 1021.27 380.592 1020.6 380.544L1018.73 380.328C1018.2 380.232 1017.93 379.944 1017.93 379.464C1017.93 378.984 1018.2 378.696 1018.73 378.6C1020.26 378.312 1021.49 377.976 1022.4 377.592C1023.36 377.208 1024.15 376.824 1024.77 376.44C1025.54 375.96 1026.12 375.72 1026.5 375.72C1027.03 375.72 1027.29 376.104 1027.29 376.872V422.16C1027.29 424.176 1027.8 425.184 1028.81 425.184C1029.43 425.184 1030.01 424.776 1030.53 423.96C1031.06 423.096 1031.33 421.656 1031.33 419.64C1031.33 418.872 1031.64 418.488 1032.26 418.488C1032.84 418.488 1033.13 418.896 1033.13 419.712C1033.13 423.216 1032.53 425.76 1031.33 427.344C1030.13 428.88 1028.76 429.648 1027.22 429.648C1025.83 429.648 1024.77 429.192 1024.05 428.28C1023.33 427.32 1022.85 426.192 1022.61 424.896C1022.57 424.512 1022.4 424.32 1022.11 424.32C1021.82 424.272 1021.56 424.44 1021.32 424.824C1019.97 426.696 1018.75 427.968 1017.65 428.64C1016.54 429.312 1015.2 429.648 1013.61 429.648ZM1015.2 426.336C1016.45 426.336 1017.6 425.928 1018.65 425.112C1019.76 424.248 1020.65 423.096 1021.32 421.656C1022.04 420.216 1022.4 418.608 1022.4 416.832V400.632C1022.4 398.472 1021.89 396.768 1020.89 395.52C1019.93 394.272 1018.65 393.648 1017.07 393.648C1014.38 393.648 1012.2 395.232 1010.52 398.4C1008.89 401.52 1008.07 405.792 1008.07 411.216C1008.07 416.16 1008.69 419.928 1009.94 422.52C1011.24 425.064 1012.99 426.336 1015.2 426.336Z" fill="white"/>
</g>
<defs>
<linearGradient id="paint0_linear_223_25704" x1="1440" y1="405.695" x2="1439.99" y2="402.735" gradientUnits="userSpaceOnUse">
<stop stop-color="#B57518"/>
<stop offset="1" stop-color="#B48643"/>
</linearGradient>
<linearGradient id="paint1_linear_223_25704" x1="1606" y1="750.008" x2="-165" y2="60.9921" gradientUnits="userSpaceOnUse">
<stop stop-color="#B57518"/>
<stop offset="0.432692" stop-color="#392302"/>
<stop offset="1" stop-color="#B48643"/>
</linearGradient>
<linearGradient id="paint2_linear_223_25704" x1="1606" y1="750.008" x2="-165" y2="60.9921" gradientUnits="userSpaceOnUse">
<stop stop-color="#B57518"/>
<stop offset="1" stop-color="#B48643"/>
</linearGradient>
<linearGradient id="paint3_linear_223_25704" x1="1619.36" y1="0.694527" x2="1619.36" y2="-2.26485" gradientUnits="userSpaceOnUse">
<stop stop-color="#B57518"/>
<stop offset="1" stop-color="#B48643"/>
</linearGradient>
<linearGradient id="paint4_linear_223_25704" x1="1626.08" y1="0.694527" x2="1626.08" y2="-2.26485" gradientUnits="userSpaceOnUse">
<stop stop-color="#B57518"/>
<stop offset="1" stop-color="#B48643"/>
</linearGradient>
<clipPath id="clip0_223_25704">
<rect width="1440" height="810" fill="white"/>
</clipPath>
</defs>
</svg>
